name Walk1.mot
datacolumns 19
datarows 20
range 2.02000000 2.03900000
endheader

                time	   L_ground_force_vx	   L_ground_force_vy	   L_ground_force_vz	   L_ground_force_px	   L_ground_force_py	   L_ground_force_pz	   R_ground_force_vx	   R_ground_force_vy	   R_ground_force_vz	   R_ground_force_px	   R_ground_force_py	   R_ground_force_pz	   L_ground_torque_x	   L_ground_torque_y	   L_ground_torque_z	   R_ground_torque_x	   R_ground_torque_y	   R_ground_torque_z	
          2.02000000	          0.00000000	          0.00000000	          0.00000000	          0.00000000	          0.00000000	          0.00000000	         24.87785954	         85.74821579	          1.62780377	          0.41930843	          0.00000000	          0.06022930	          0.00000000	          0.00000000	          0.00000000	          0.00000000	         -5.30880964	          0.00000000	
          2.02100000	          0.00000000	          0.00000000	          0.00000000	          0.00000000	          0.00000000	          0.00000000	         23.68559396	         80.67443952	          1.81098829	          0.41157257	          0.00000000	          0.05928147	          0.00000000	          0.00000000	          0.00000000	          0.00000000	         -5.06565893	          0.00000000	
          2.02200000	          0.00000000	          0.00000000	          0.00000000	          0.00000000	          0.00000000	          0.00000000	         22.51374169	         75.76297924	          1.97594684	          0.40350912	          0.00000000	          0.05828388	          0.00000000	          0.00000000	          0.00000000	          0.00000000	         -4.82627742	          0.00000000	
          2.02300000	          0.00000000	          0.00000000	          0.00000000	          0.00000000	          0.00000000	          0.00000000	         21.36357083	         71.01394286	          2.12315135	          0.39512189	          0.00000000	          0.05723617	          0.00000000	          0.00000000	          0.00000000	          0.00000000	         -4.59091041	          0.00000000	
          2.02400000	          0.00000000	          0.00000000	          0.00000000	          0.00000000	          0.00000000	          0.00000000	         20.23631689	         66.42715131	          2.25311452	          0.38641633	          0.00000000	          0.05613827	          0.00000000	          0.00000000	          0.00000000	          0.00000000	         -4.35979987	          0.00000000	
          2.02500000	          0.00000000	          0.00000000	          0.00000000	          0.00000000	          0.00000000	          0.00000000	         19.13317659	         62.00215839	          2.36638748	          0.37739965	          0.00000000	          0.05499039	          0.00000000	          0.00000000	          0.00000000	          0.00000000	         -4.13318348	          0.00000000	
          2.02600000	          0.00000000	          0.00000000	          0.00000000	          0.00000000	          0.00000000	          0.00000000	         18.05530118	         57.73827110	          2.46355710	          0.36808093	          0.00000000	          0.05379302	          0.00000000	          0.00000000	          0.00000000	          0.00000000	         -3.91129319	          0.00000000	
          2.02700000	          0.00000000	          0.00000000	          0.00000000	          0.00000000	          0.00000000	          0.00000000	         17.00378882	         53.63457009	          2.54524323	          0.35847135	          0.00000000	          0.05254701	          0.00000000	          0.00000000	          0.00000000	          0.00000000	         -3.69435352	          0.00000000	
          2.02800000	          0.00000000	          0.00000000	          0.00000000	          0.00000000	          0.00000000	          0.00000000	         15.97967590	         49.68993010	          2.61209587	          0.34858435	          0.00000000	          0.05125352	          0.00000000	          0.00000000	          0.00000000	          0.00000000	         -3.48257971	          0.00000000	
          2.02900000	          0.00000000	          0.00000000	         -0.00000000	          0.00000000	          0.00000000	          0.00000000	         14.98392756	         45.90304090	          2.66479245	          0.33843578	          0.00000000	          0.04991406	          0.00000000	          0.00000000	          0.00000000	          0.00000000	         -3.27617576	          0.00000000	
          2.03000000	          0.00000000	          0.00000000	         -0.00000000	          0.00000000	          0.00000000	          0.00000000	         14.01742835	         42.27242912	          2.70403535	          0.32804417	          0.00000000	          0.04853055	          0.00000000	          0.00000000	          0.00000000	          0.00000000	         -3.07533273	          0.00000000	
          2.03100000	          0.00000000	          0.00000000	         -0.00000000	          0.00000000	          0.00000000	          0.00000000	         13.08097365	         38.79648071	          2.73054984	          0.31743080	          0.00000000	          0.04710536	          0.00000000	          0.00000000	          0.00000000	          0.00000000	         -2.88022727	          0.00000000	
          2.03200000	          0.00000000	          0.00000000	         -0.00000000	          0.00000000	          0.00000000	          0.00000000	         12.17526243	         35.47346231	          2.74508253	          0.30661995	          0.00000000	          0.04564137	          0.00000000	          0.00000000	          0.00000000	          0.00000000	         -2.69102032	          0.00000000	
          2.03300000	          0.00000000	          0.00000000	         -0.00000000	          0.00000000	          0.00000000	          0.00000000	         11.30089138	         32.30153911	          2.74840001	          0.29563902	          0.00000000	          0.04414204	          0.00000000	          0.00000000	          0.00000000	          0.00000000	         -2.50785607	          0.00000000	
          2.03400000	          0.00000000	          0.00000000	         -0.00000000	          0.00000000	          0.00000000	          0.00000000	         10.45835036	         29.27878615	          2.74128702	          0.28451868	          0.00000000	          0.04261151	          0.00000000	          0.00000000	          0.00000000	          0.00000000	         -2.33086120	          0.00000000	
          2.03500000	          0.00000000	          0.00000000	         -0.00000000	          0.00000000	          0.00000000	          0.00000000	          9.64801895	         26.40318986	          2.72454339	          0.27329304	          0.00000000	          0.04105461	          0.00000000	          0.00000000	          0.00000000	          0.00000000	         -2.16014415	          0.00000000	
          2.03600000	          0.00000000	          0.00000000	         -0.00000000	          0.00000000	          0.00000000	          0.00000000	          8.87016390	         23.67263709	          2.69897871	          0.26199977	          0.00000000	          0.03947694	          0.00000000	          0.00000000	          0.00000000	          0.00000000	         -1.99579430	          0.00000000	
          2.03700000	          0.00000000	          0.00000000	         -0.00000000	          0.00000000	          0.00000000	          0.00000000	          8.12493678	         21.08488272	          2.66540306	          0.25067983	          0.00000000	          0.03788482	          0.00000000	          0.00000000	          0.00000000	          0.00000000	         -1.83788061	          0.00000000	
          2.03800000	          0.00000000	          0.00000000	         -0.00000000	         -0.00000000	          0.00000000	         -0.00000000	          7.41237103	         18.63748731	          2.62461218	          0.23937556	          0.00000000	          0.03628501	          0.00000000	          0.00000000	          0.00000000	          0.00000000	         -1.68644904	          0.00000000	
          2.03900000	          0.00000000	          0.00000000	         -0.00000000	         -0.00000000	          0.00000000	         -0.00000000	          6.73238096	         16.32775292	          2.57737171	          0.22812787	          0.00000000	          0.03468410	          0.00000000	          0.00000000	          0.00000000	          0.00000000	         -1.54152011	          0.00000000	
